<?xml version="1.0" encoding="utf-8"?>
<!-- Generator: Adobe Illustrator 21.0.0, SVG Export Plug-In . SVG Version: 6.00 Build 0)  -->
<svg version="1.1" id="Layer_1" xmlns="http://www.w3.org/2000/svg" xmlns:xlink="http://www.w3.org/1999/xlink" x="0px" y="0px"
	 viewBox="0 0 2000 2000" style="enable-background:new 0 0 2000 2000;" xml:space="preserve">
<path d="M1607.1,558.8c-47.2-37-113.4-35.1-166.8-11.1c3.9-32.6,7.8-65.3,11.7-97.9c5.6-46.3-3.8-92.3-49.9-115.5
	c-26.3-13.2-56.9-10.2-85.4-10.2c-47.7,0-95.4,0-143,0c-127,0-254.1,0-381.1,0c-41.8,0-83.6,0-125.4,0c-40.3,0-78.7,5.9-103.3,42.9
	c-21.9,32.9-14.7,68.4-10.4,104.5c3.1,26,6.2,52,9.3,77.9c-44.2-21-98.8-27.4-143.3-7.3c-43,19.4-65,57.1-75.1,101.5
	c-20.9,92.1,3.2,200.6,75.1,265c53.3,47.7,124,64.3,194,63.8c5.4,43.1,14,84.1,40.5,120.4c41.1,56.4,105.1,85.3,174,85.7
	c30.7,0.1,61.4,0.1,92,0.1c0,97.6,0,195.3,0,292.9c0,9.7,0,19.3,0,29c-30.8-0.5-61.8-0.1-86.8,21.1c-40.7,34.7-30.8,92.7-30.8,140.4
	c0,7.7,6.5,14.2,14.2,14.2c107.9,0,215.9,0,323.8,0c15.3,0,30.5,0,45.8,0c3.9,0,6.8-1.5,9-3.5c0.3-0.3,0.7-0.5,1-0.7
	c0.3-0.3,0.4-0.6,0.7-0.9c2.1-2.3,3.6-5.2,3.6-9.1c0-38.6,8.1-88.2-14.4-122c-24.9-37.4-63.5-39.2-103.2-39.3
	c0-97.7,0-195.4,0-293.1c0-9.7,0-19.4,0-29.1c22.1,0,44.2-0.1,66.3-0.1c10.7,0,21.4,0,32.1,0c83.4-1.7,159-50.3,191.2-128.1
	c10.3-24.8,14.1-51.4,17.1-78c61.4,0,123.8-13.1,173.8-50.4c41.6-31.1,70.5-75.6,85.6-125.1C1671.1,724.6,1673.1,610.5,1607.1,558.8
	z M378.7,792.3c-12.3-38.6-16-80.4-10.6-120.6c3.8-28.3,11.9-61.2,32.3-82.5c43-44.8,116.7-35.5,165.6-5.8c0.3,0.2,0.6,0.2,0.9,0.3
	c1.8,14.9,3.6,29.8,5.3,44.7c12.6,105.1,25.2,210.3,37.8,315.4c-54.9,0-110.2-10.8-155.5-43.4C418,874.1,392.3,835,378.7,792.3z
	 M1146.8,1539.7c32.2,22.6,27.2,70.6,25.6,108c-103.3,0-206.6,0-309.9,0c-10.5,0-21,0-31.5,0c0-11.8,0-23.6,0-35.3
	c0-19.4-1.7-38.8,9.3-56c20.5-32.3,58.1-27.2,91-27.2c1,0,2.1,0,3.1,0c41.2,0,82.4,0,123.6,0c3.6,0,7.2,0,10.8,0
	c0.5,0,0.9-0.2,1.4-0.3C1095.6,1527.9,1126.5,1525.6,1146.8,1539.7z M1054.4,1471.5c0,9.7,0,19.5,0,29.2c-35.3,0-70.6,0-105.9,0
	c0-97.7,0-195.3,0-293c0-9.7,0-19.4,0-29.1c35.3,0,70.6,0,105.9,0C1054.4,1276.2,1054.4,1373.8,1054.4,1471.5z M1301.8,1103.1
	c-33.1,30.4-75.8,45.9-120.5,46.8c-37.6,0-75.1,0-112.7,0c-44.8,0-89.6,0-134.3,0c-10.9,0-21.7,0-32.6,0c-36.1,0-75.3,3.7-111.1-2.7
	c-77.7-13.8-135.4-77.3-146.2-154.6c-25.6-182.8-44-366.9-65.9-550.2c-5.5-46.1,15.4-88.4,67.4-90c25.5-0.8,51.2,0,76.7,0
	c111.8,0,223.7,0,335.5,0c93.6,0,187.3,0,280.9,0c6.6,0,13.3-0.2,19.8,0c42.4,1.6,70.4,35.5,67.2,77.2c-1.9,24-5.8,48-8.6,71.9
	c-13.6,113.8-27.3,227.6-40.9,341.5C1366.2,928.9,1370.3,1040.1,1301.8,1103.1z M1559.6,888.4c-45.7,41-106.8,54.8-166.8,55.4
	c14.3-119.2,28.6-238.4,42.9-357.6c0.2-1.5,0.3-2.9,0.5-4.4c41.6-24.1,98.8-33.9,141.5-8.8c31.9,18.7,44.6,51.2,51.3,86
	C1644.6,739.8,1622,832.6,1559.6,888.4z M1246.2,683.4c-27-3.9-53.9-7.8-80.9-11.8c-19-2.8-37.9-5.5-56.9-8.3
	c-6.7-1-13.9-2.8-20.8-3c-1,0-1.6-0.2-2.4-0.4c-0.3-0.7-0.5-1.2-0.6-1.4c-2.2-5.9-5.7-11.6-8.5-17.2c-8.4-17-16.8-34-25.2-51
	c-12.4-25.1-24.8-50.3-37.2-75.4c-2.6-5.2-6.8-7.1-11.1-7c-5.1-1-10.5,0.8-13.5,7c-12.1,24.4-24.1,48.9-36.2,73.3
	c-8.5,17.2-17,34.4-25.4,51.5c-3,6.1-6.9,12.4-9.3,18.8c-0.1,0.4-0.4,0.9-0.7,1.4c-0.8,0.2-1.5,0.3-2.3,0.4
	c-6.3,0.2-12.8,1.9-19,2.8c-18.8,2.7-37.5,5.5-56.3,8.2c-27.8,4-55.5,8.1-83.3,12.1c-10.9,1.6-13.3,17-6.3,23.8
	c38.4,37.5,76.9,74.9,115.3,112.4c-9,52.3-18,104.7-26.9,157c-2.1,12.2,9.3,22.2,20.9,16.1c47.2-24.8,94.5-49.7,141.7-74.5
	c47.2,24.8,94.5,49.7,141.7,74.5c11.7,6.1,23-3.9,20.9-16.1c-9-52.3-18-104.7-26.9-157c38.4-37.5,76.9-74.9,115.3-112.4
	C1259.5,700.4,1257.1,685,1246.2,683.4z M1127.6,789.2c-5.8,5.7-17,13.3-19.4,21.6c-2.2,7.6,2.2,20.3,3.4,27.6
	c3.2,18.6,6.4,37.2,9.6,55.8c3.4,20.1,6.9,40.1,10.3,60.2c-18.3-9.6-36.5-19.2-54.8-28.8c-16.2-8.5-32.5-17.1-48.7-25.6
	c-7.1-3.7-18.1-12.2-26.6-12.2c-8.1,0-18.5,7.9-25.2,11.4c-16.7,8.8-33.4,17.6-50.1,26.4c-18.3,9.6-36.5,19.2-54.8,28.8
	c3.4-20.1,6.9-40.1,10.3-60.2c3.1-18.1,6.2-36.2,9.3-54.2c1.3-7.8,6-21.2,3.7-29.2s-12.7-15.1-18.2-20.5
	c-13.5-13.2-27-26.4-40.5-39.5c-15-14.6-30-29.2-44.9-43.8c19.6-2.8,39.3-5.7,58.9-8.6c19.7-2.9,39.4-5.7,59.1-8.6
	c8-1.2,19.8-0.6,26.6-5.7c6.6-5,9.9-16.6,13.4-23.7c8.5-17.2,16.9-34.3,25.4-51.5c9-18.3,18-36.5,27-54.8
	c8.7,17.5,17.3,35.1,26,52.7c8.8,17.9,17.6,35.7,26.4,53.6c3.5,7.1,6.8,18.7,13.4,23.7c6.7,5.1,18.7,4.6,26.6,5.7
	c18.9,2.8,37.9,5.5,56.8,8.3c20.4,3,40.8,5.9,61.2,8.9c-15,14.6-29.9,29.2-44.9,43.8C1153.9,763.6,1140.7,776.4,1127.6,789.2z"/>
</svg>
